<?xml version="1.0" standalone="no"?>
<!DOCTYPE svg PUBLIC "-//W3C//DTD SVG 20010904//EN"
 "http://www.w3.org/TR/2001/REC-SVG-20010904/DTD/svg10.dtd">
<svg version="1.0" xmlns="http://www.w3.org/2000/svg"
 width="320.000000pt" height="320.000000pt" viewBox="0 0 320.000000 320.000000"
 preserveAspectRatio="xMidYMid meet">

<g transform="translate(0.000000,320.000000) scale(0.100000,-0.100000)"
fill="#000000" stroke="none">
<path d="M0 1600 l0 -1600 1600 0 1600 0 0 1600 0 1600 -1600 0 -1600 0 0
-1600z m1300 830 l31 -61 62 8 c78 10 332 10 414 1 l63 -8 30 60 c22 44 36 60
51 60 59 0 357 -88 441 -131 89 -45 268 -405 339 -684 47 -179 71 -454 55
-608 l-8 -67 -91 -60 c-118 -78 -275 -158 -405 -206 -120 -44 -107 -49 -182
75 -51 85 -60 111 -38 111 6 0 50 19 97 41 l85 41 -24 18 c-21 16 -28 17 -50
5 -49 -25 -206 -74 -310 -96 -82 -17 -139 -22 -260 -22 -177 0 -295 20 -465
80 -130 45 -137 47 -159 30 -17 -12 -12 -16 55 -50 41 -20 86 -41 101 -46 l28
-10 -47 -81 c-26 -44 -57 -92 -69 -107 l-21 -27 -79 28 c-154 54 -395 182
-508 270 -40 32 -32 367 15 601 43 213 167 514 284 689 46 70 93 95 281 150
245 71 246 71 284 -4z"/>
<path d="M1140 1729 c-152 -61 -190 -288 -65 -398 46 -40 74 -51 131 -51 119
0 203 94 204 228 0 71 -14 112 -56 161 -50 60 -146 87 -214 60z"/>
<path d="M1915 1722 c-45 -21 -91 -70 -112 -119 -19 -47 -16 -150 6 -198 22
-47 74 -99 114 -114 39 -15 111 -14 150 2 42 18 101 85 117 132 20 60 9 162
-23 212 -57 89 -165 126 -252 85z"/>
</g>
</svg>
