<?xml version="1.0" standalone="no"?>
<!DOCTYPE svg PUBLIC "-//W3C//DTD SVG 20010904//EN"
 "http://www.w3.org/TR/2001/REC-SVG-20010904/DTD/svg10.dtd">
<svg version="1.0" xmlns="http://www.w3.org/2000/svg"
 width="640.000000pt" height="640.000000pt" viewBox="0 0 640.000000 640.000000"
 preserveAspectRatio="xMidYMid meet">

<g transform="translate(0.000000,640.000000) scale(0.100000,-0.100000)"
fill="#000000" stroke="none">
<path d="M2319 6396 c-2 -2 -121 -7 -264 -11 -732 -18 -1134 -102 -1429 -299
-164 -109 -289 -249 -380 -425 -84 -164 -128 -307 -171 -561 -52 -314 -65
-590 -72 -1605 -12 -1839 31 -2335 236 -2743 26 -52 46 -80 53 -76 7 4 8 3 4
-4 -16 -27 124 -198 236 -289 329 -265 697 -347 1678 -373 800 -21 2307 -4
2630 29 513 54 801 152 1045 358 111 93 284 325 270 361 -3 7 -1 11 4 8 5 -3
20 21 35 54 84 186 144 473 170 810 27 337 39 1067 33 1910 -7 933 -23 1262
-73 1560 -76 455 -204 706 -474 931 -178 147 -431 245 -775 298 -346 54 -820
71 -1936 71 -449 0 -818 -2 -820 -4z m-502 -2021 c11 -383 95 -769 228 -1052
134 -283 291 -470 509 -603 119 -72 250 -117 245 -83 -1 4 -1 416 0 916 l1
907 345 0 345 0 0 -525 0 -525 29 0 c78 0 247 75 381 168 86 60 283 259 276
278 -3 8 -2 13 3 10 33 -21 240 340 301 527 l22 67 344 0 c399 0 359 17 319
-135 -111 -417 -361 -785 -740 -1090 -28 -22 -62 -46 -76 -54 -14 -7 -39 -23
-55 -36 l-29 -23 40 -18 c22 -10 96 -55 165 -100 397 -258 697 -650 849 -1107
18 -54 30 -101 27 -105 -4 -3 -176 -6 -382 -6 l-376 -1 -23 65 c-25 74 -91
209 -142 290 -191 301 -478 507 -804 575 -39 8 -83 15 -100 15 l-29 0 -2 -472
-3 -473 -140 3 c-403 8 -731 83 -1035 236 -105 54 -179 97 -249 147 -29 21
-58 36 -63 33 -4 -3 -7 -1 -6 5 2 5 -19 29 -47 51 -385 320 -651 796 -780
1394 -45 210 -74 442 -82 644 l-6 162 369 -2 369 -3 2 -80z"/>
</g>
</svg>
